<svg width="17" height="18" viewBox="0 0 17 18" fill="none" xmlns="http://www.w3.org/2000/svg">
<path d="M12.6113 0.666626H4.278C1.98653 0.666626 0.111328 2.54102 0.111328 4.83329V13.1666C0.111328 15.4581 1.98653 17.3333 4.278 17.3333H12.6113C14.9028 17.3333 16.778 15.4581 16.778 13.1666V4.83329C16.778 2.54102 14.9028 0.666626 12.6113 0.666626ZM8.44466 12.472C6.52673 12.472 4.97237 10.917 4.97237 8.99996C4.97237 7.08203 6.52673 5.52767 8.44466 5.52767C10.3617 5.52767 11.917 7.08203 11.917 8.99996C11.917 10.917 10.3617 12.472 8.44466 12.472ZM12.9586 5.52767C12.3828 5.52767 11.917 5.0612 11.917 4.486C11.917 3.91081 12.3828 3.44434 12.9586 3.44434C13.5345 3.44434 14.0003 3.91081 14.0003 4.486C14.0003 5.0612 13.5345 5.52767 12.9586 5.52767Z" fill="url(#paint0_linear_2596_476)"/>
<defs>
<linearGradient id="paint0_linear_2596_476" x1="-0.0871813" y1="17.3333" x2="16.5795" y2="0.666626" gradientUnits="userSpaceOnUse">
<stop stop-color="#FFD600"/>
<stop offset="0.328125" stop-color="#FF7A00"/>
<stop offset="0.682292" stop-color="#FF0069"/>
<stop offset="1" stop-color="#DC00C5"/>
</linearGradient>
</defs>
</svg>
