<svg width="14" height="18" viewBox="0 0 14 18" fill="none" xmlns="http://www.w3.org/2000/svg">
<path d="M7.00044 0C3.23564 0 0.172852 3.06279 0.172852 6.82759C0.172852 13.2834 6.38037 17.7027 6.64463 17.8878C6.75139 17.9628 6.87614 18 7.00044 18C7.12473 18 7.24949 17.9628 7.35625 17.8878C7.62051 17.7027 13.828 13.2834 13.828 6.82759C13.828 3.06279 10.7652 0 7.00044 0ZM7.00044 9.93103C5.28935 9.93103 3.89699 8.53867 3.89699 6.82759C3.89699 5.1165 5.28935 3.72414 7.00044 3.72414C8.71152 3.72414 10.1039 5.1165 10.1039 6.82759C10.1039 8.53867 8.71152 9.93103 7.00044 9.93103Z" fill="#EF4444"/>
</svg>
